<?xml version="1.0" encoding="UTF-8" standalone="no"?>
<!-- Created with Inkscape (http://www.inkscape.org/) -->

<svg
   width="102.64374mm"
   height="99.046631mm"
   viewBox="0 0 102.64374 99.046631"
   version="1.1"
   id="svg1319"
   inkscape:version="1.1 (c68e22c387, 2021-05-23)"
   sodipodi:docname="AddVideo.svg"
   xmlns:inkscape="http://www.inkscape.org/namespaces/inkscape"
   xmlns:sodipodi="http://sodipodi.sourceforge.net/DTD/sodipodi-0.dtd"
   xmlns="http://www.w3.org/2000/svg"
   xmlns:svg="http://www.w3.org/2000/svg">
  <sodipodi:namedview
     id="namedview1321"
     pagecolor="#ffffff"
     bordercolor="#666666"
     borderopacity="1.0"
     inkscape:pageshadow="2"
     inkscape:pageopacity="0.0"
     inkscape:pagecheckerboard="0"
     inkscape:document-units="mm"
     showgrid="false"
     inkscape:zoom="1.1256822"
     inkscape:cx="95.497646"
     inkscape:cy="266.94923"
     inkscape:window-width="1822"
     inkscape:window-height="1051"
     inkscape:window-x="-9"
     inkscape:window-y="-9"
     inkscape:window-maximized="1"
     inkscape:current-layer="layer1" />
  <defs
     id="defs1316" />
  <g
     inkscape:label="Layer 1"
     inkscape:groupmode="layer"
     id="layer1"
     transform="translate(-43.156461,-39.736588)">
    <rect
       style="fill:#000000;fill-opacity:1;stroke:#000000;stroke-width:2.15917;stroke-linecap:round"
       id="rect1427"
       width="86.501114"
       height="83.149734"
       x="44.236046"
       y="54.553902"
       ry="10.573799" />
    <rect
       style="fill:#ffffff;fill-opacity:1;stroke:none;stroke-width:1.44788;stroke-linecap:round"
       id="rect1771"
       width="74.057411"
       height="43.671539"
       x="50.942585"
       y="74.292992"
       ry="0" />
    <rect
       style="fill:#ffffff;fill-opacity:1;stroke:none;stroke-width:0.254594;stroke-linecap:round;stroke-opacity:1"
       id="rect2518"
       width="10"
       height="10"
       x="51.000999"
       y="122.64232"
       ry="0" />
    <rect
       style="fill:#ffffff;fill-opacity:1;stroke:none;stroke-width:0.254594;stroke-linecap:round;stroke-opacity:1"
       id="rect2520"
       width="10"
       height="10"
       x="67.000999"
       y="122.64232"
       ry="0" />
    <rect
       style="fill:#ffffff;fill-opacity:1;stroke:none;stroke-width:0.254594;stroke-linecap:round;stroke-opacity:1"
       id="rect2522"
       width="10"
       height="10"
       x="83.000999"
       y="122.64232"
       ry="0" />
    <rect
       style="fill:#ffffff;fill-opacity:1;stroke:none;stroke-width:0.254594;stroke-linecap:round;stroke-opacity:1"
       id="rect2524"
       width="10"
       height="10"
       x="99.000999"
       y="122.64232"
       ry="0" />
    <rect
       style="fill:#ffffff;fill-opacity:1;stroke:none;stroke-width:0.254594;stroke-linecap:round;stroke-opacity:1"
       id="rect2526"
       width="10"
       height="10"
       x="115.001"
       y="122.64232"
       ry="0" />
    <rect
       style="fill:#ffffff;fill-opacity:1;stroke:none;stroke-width:0.254594;stroke-linecap:round;stroke-opacity:1"
       id="rect2530"
       width="10"
       height="10"
       x="51.000999"
       y="59.101566"
       ry="0" />
    <rect
       style="fill:#ffffff;fill-opacity:1;stroke:none;stroke-width:0.254594;stroke-linecap:round;stroke-opacity:1"
       id="rect2532"
       width="10"
       height="10"
       x="67.000999"
       y="59.101566"
       ry="0" />
    <rect
       style="fill:#ffffff;fill-opacity:1;stroke:none;stroke-width:0.254594;stroke-linecap:round;stroke-opacity:1"
       id="rect2534"
       width="10"
       height="10"
       x="83.000999"
       y="59.101566"
       ry="0" />
    <rect
       style="fill:#ffffff;fill-opacity:1;stroke:none;stroke-width:0.254594;stroke-linecap:round;stroke-opacity:1"
       id="rect2536"
       width="10"
       height="10"
       x="99.000999"
       y="59.101566"
       ry="0" />
    <rect
       style="fill:#ffffff;fill-opacity:1;stroke:none;stroke-width:0.254594;stroke-linecap:round;stroke-opacity:1"
       id="rect2538"
       width="10"
       height="10"
       x="115.001"
       y="59.101566"
       ry="0" />
    <g
       id="g1219"
       transform="translate(7.7564076)">
      <circle
         style="fill:#000000;fill-opacity:1;stroke:#000000;stroke-width:10;stroke-linecap:round;stroke-linejoin:round;stroke-miterlimit:4;stroke-dasharray:none;stroke-opacity:1"
         id="path2989"
         cx="80.584236"
         cy="95.642075"
         r="9.5973015" />
      <path
         sodipodi:type="star"
         style="fill:#ffffff;fill-opacity:1;stroke:#ffffff;stroke-width:37.7953;stroke-linecap:round;stroke-linejoin:round;stroke-miterlimit:4;stroke-dasharray:none;stroke-opacity:1"
         id="path2656"
         inkscape:flatsided="true"
         sodipodi:sides="3"
         sodipodi:cx="225.76981"
         sodipodi:cy="327.71021"
         sodipodi:r1="78.305115"
         sodipodi:r2="41.795563"
         sodipodi:arg1="0.75715709"
         sodipodi:arg2="1.8043546"
         inkscape:rounded="0"
         inkscape:randomized="0"
         d="M 282.68131,381.4947 150.73532,350.10476 243.8928,251.53115 Z"
         transform="matrix(0.0700047,-0.06486164,0.06607495,0.06871923,42.550053,88.038937)"
         inkscape:transform-center-x="-2.7052191"
         inkscape:transform-center-y="0.21790062" />
    </g>
    <g
       id="g6243"
       transform="matrix(0.82474276,0,0,0.81041856,-14.560615,-8.8191107)">
      <path
         id="rect5495"
         style="fill:#00ff02;fill-opacity:1;stroke:#000000;stroke-width:1.5;stroke-linecap:round"
         d="m 140.33198,83.078484 h 44.82828 c 4.72402,0 8.52711,3.803094 8.52711,8.527117 0,4.724023 -3.80309,8.527119 -8.52711,8.527119 h -44.82828 c -4.72402,0 -8.52711,-3.803096 -8.52711,-8.527119 0,-4.724023 3.80309,-8.527117 8.52711,-8.527117 z" />
      <path
         id="rect5516"
         style="fill:#00ff00;fill-opacity:1;stroke:#000000;stroke-width:1.5;stroke-linecap:round"
         d="m 171.27323,69.191464 v 44.828276 c 0,4.72402 -3.8031,8.52711 -8.52712,8.52711 -4.72402,0 -8.52711,-3.80309 -8.52711,-8.52711 V 69.191464 c 0,-4.724023 3.80309,-8.527117 8.52711,-8.527117 4.72402,0 8.52712,3.803094 8.52712,8.527117 z" />
      <path
         id="path5870"
         style="fill:#00ff00;fill-opacity:1;stroke:none;stroke-width:1.37143;stroke-linecap:round"
         d="m 142.2532,83.80938 h 40.98585 c 4.3191,0 7.79621,3.477114 7.79621,7.796221 0,4.319107 -3.47711,7.796221 -7.79621,7.796221 H 142.2532 c -4.31911,0 -7.79622,-3.477114 -7.79622,-7.796221 0,-4.319107 3.47711,-7.796221 7.79622,-7.796221 z" />
    </g>
  </g>
</svg>
